<svg width="1080" height="1080" viewBox="0 0 1080 1080" fill="none" xmlns="http://www.w3.org/2000/svg">
<g clip-path="url(#clip0_11:14)">
<rect width="1080" height="1080" fill="#1D5F9A"/>
<path d="M291.347 387.959C292.066 387.788 292.554 387.119 292.495 386.382C292.131 381.779 291.767 377.264 291.409 372.82C286.359 310.206 282.429 261.477 294.954 175.925C307.013 149.2 324.572 122.89 354.51 100.63C384.516 78.319 427.049 60.0066 489.141 49.4974C559.13 48.089 612.971 60.0571 654.755 80.7736C696.502 101.471 726.297 130.941 748.161 164.692C773.533 228.208 781.608 270.497 782.925 313.951C783.585 335.724 782.549 357.81 781.123 383.058C780.923 386.598 780.716 390.201 780.504 393.872C779.209 416.349 777.763 441.428 777.003 470.863L762.018 565.766L762.017 565.772L750.028 643.703C746.72 656.897 741.505 667.001 736.345 676.998C736.141 677.394 735.937 677.789 735.733 678.184L728.341 687.547L713.896 704.483C713.875 704.504 713.847 704.532 713.812 704.568C713.73 704.651 713.612 704.772 713.459 704.93C713.153 705.246 712.711 705.708 712.161 706.297C711.062 707.476 709.529 709.166 707.792 711.219C704.326 715.315 700.01 720.896 696.694 726.762C696.623 726.888 696.57 727.024 696.538 727.166L692.538 744.666C692.514 744.77 692.501 744.877 692.5 744.984C692.245 768.913 695.537 784.385 698.717 799.334C699.699 803.95 700.671 808.516 701.524 813.265C701.622 813.81 702.012 814.257 702.539 814.427L896.19 876.944C876.525 896.439 859.296 915.428 843.066 933.315C838.996 937.801 834.988 942.218 831.021 946.556C810.748 968.724 791.523 988.84 770.233 1005.8C727.752 1039.64 676.94 1061 593.088 1060.5C469.229 1046.68 403.926 1015.33 352.929 975.443C330.7 958.058 311.177 939.043 290.66 919.06C287.591 916.071 284.501 913.061 281.375 910.031C258.029 887.4 232.8 863.733 200.624 840.099L364.801 806.469C365.492 806.328 365.99 805.725 366 805.02L367.318 707.02C367.323 706.673 367.207 706.335 366.99 706.064C359.068 696.149 352.583 685.452 344.338 669.822C334.194 648.918 330.313 630.667 327.998 581.43C327.974 580.918 327.691 580.454 327.247 580.199C326.493 579.766 325.774 579.357 325.081 578.963C318.587 575.266 314.428 572.899 305.502 564.884C305.373 564.768 305.224 564.675 305.063 564.61C301.884 563.322 298.942 559.676 295.804 553.635C292.869 547.988 289.933 540.604 286.486 531.934C286.312 531.496 286.136 531.054 285.959 530.609L274.984 455.284C274.965 455.149 274.927 455.017 274.872 454.893C267.162 437.472 262.605 424.981 260.534 415.933C258.451 406.835 258.957 401.536 260.929 398.225C262.881 394.947 266.513 393.203 271.875 391.874C274.449 391.237 277.324 390.716 280.488 390.143L280.804 390.086C284.076 389.493 287.626 388.844 291.347 387.959ZM481.244 424.698C481.143 424.64 481.036 424.594 480.924 424.561C473.115 422.257 469.316 420.274 465.96 418.168C465.184 417.68 464.419 417.178 463.627 416.658C460.956 414.903 457.969 412.94 453.144 410.645C451.028 409.639 449.042 408.772 446.045 407.603C439.551 405.068 433.995 403.778 428.647 403.748C423.286 403.718 418.236 404.954 412.758 407.33C406.173 410.187 398.898 414.724 389.68 420.744C389.228 421.039 388.97 421.554 389.003 422.093C389.036 422.631 389.356 423.11 389.841 423.347L389.841 423.348L389.845 423.35C389.849 423.353 389.858 423.36 389.871 423.374C389.884 423.388 389.901 423.407 389.92 423.434C389.943 423.465 389.969 423.506 389.999 423.559C390.123 423.777 390.233 424.066 390.384 424.496L390.416 424.588C390.545 424.956 390.714 425.441 390.94 425.874C391.191 426.356 391.595 426.945 392.286 427.319C400.576 431.807 407.794 434.809 418.646 436.627C420.585 436.952 422.637 437.239 424.829 437.49C424.872 437.495 424.914 437.498 424.957 437.499C425.019 437.501 425.081 437.499 425.143 437.493L447.715 435.326L487.643 431.493C488.294 431.431 488.829 430.954 488.966 430.315C489.104 429.676 488.812 429.022 488.244 428.698L481.244 424.698ZM611.238 421.717C610.986 421.791 610.758 421.93 610.576 422.12L606.417 426.462C606.02 426.877 605.894 427.481 606.093 428.019C606.291 428.558 606.78 428.935 607.35 428.992L640.24 432.287L667.13 434.981L672.236 435.492C672.342 435.503 672.449 435.502 672.555 435.49C688.37 433.696 697.402 430.223 708.108 424.479C708.828 424.093 709.255 423.48 709.525 422.968C709.789 422.467 709.981 421.9 710.127 421.488C710.292 421.023 710.414 420.701 710.557 420.453C710.627 420.331 710.683 420.261 710.723 420.221C710.758 420.186 710.781 420.174 710.789 420.17C711.276 419.934 711.598 419.453 711.632 418.912C711.665 418.372 711.404 417.855 710.949 417.561C693.943 406.555 682.974 400.091 671.246 399.25C664.534 398.769 657.678 400.13 649.414 403.326C641.623 406.339 637.004 408.787 633.462 410.957C632.117 411.781 630.928 412.565 629.802 413.307C629.768 413.33 629.733 413.353 629.699 413.376C629.458 413.534 629.22 413.691 628.984 413.846C627.607 414.749 626.277 415.598 624.75 416.438C621.71 418.112 617.82 419.793 611.238 421.717ZM444.955 410.397C447.891 411.543 449.81 412.382 451.856 413.355C456.477 415.552 459.26 417.38 461.907 419.119C462.723 419.654 463.525 420.182 464.365 420.709C467.941 422.953 471.961 425.032 479.907 427.389L482.654 428.958L447.428 432.34L425.014 434.492C422.928 434.25 420.979 433.977 419.142 433.669C408.692 431.917 401.79 429.053 393.714 424.681C393.769 424.71 393.718 424.713 393.6 424.487C393.478 424.253 393.375 423.96 393.22 423.517L393.214 423.502C393.099 423.172 392.948 422.744 392.742 422.329C401.296 416.767 407.963 412.68 413.952 410.082C419.145 407.83 423.779 406.72 428.63 406.748C433.492 406.775 438.673 407.946 444.955 410.397ZM635.03 413.515C638.405 411.447 642.859 409.077 650.496 406.124C658.508 403.025 664.904 401.803 671.032 402.242C681.542 402.996 691.571 408.639 707.858 419.136C707.612 419.605 707.435 420.102 707.299 420.487L707.291 420.511C707.123 420.985 707.008 421.309 706.87 421.571C706.737 421.825 706.666 421.848 706.69 421.835C696.313 427.403 687.668 430.74 672.375 432.491L667.43 431.996L640.539 429.302L610.713 426.314L612.466 424.484C618.975 422.56 622.984 420.835 626.196 419.066C627.827 418.169 629.234 417.27 630.629 416.355C630.911 416.17 631.191 415.986 631.472 415.8C632.593 415.061 633.732 414.31 635.03 413.515Z" fill="#003A24" stroke="black" stroke-width="3" stroke-linejoin="round"/>
<path d="M560 406C567.291 383.931 574.13 371.982 601 361.5C602.136 362.907 603.773 363.498 609.5 364C631 359.5 634.5 355.5 655.5 352C673.5 349.5 679.5 349.742 695 353.5C710.5 357.258 716 360 739.5 370C763 380 753.5 376.188 762 376L779.5 387C776.5 435.5 775.579 472.303 774.5 477L748.5 644C744.024 659.598 740.875 666.591 734.5 677C719.186 696.405 715.201 700.285 695 725.5C695.135 729.951 695 732 671 747C645 762 612.67 787.463 612 788C611 788.802 611 788.5 609.5 789.5C593.204 792.876 586 794.5 576.5 795.5C592.029 789.912 592.5 781.5 595 769V755.5C594 748.5 589.647 741.635 581.5 740.5C572.817 734.242 572 714 572 706C572 698 582.173 662.745 589.5 627.5L566 589V586C575.518 579.101 578.663 574.5 581.5 551C579.5 531 573.437 530.225 572 518.5C566 471 549.148 457.175 560 406Z" fill="#0C000C" fill-opacity="0.3"/>
<path d="M424.197 436.466C423.824 437.909 423.276 438.78 420.641 440.637M420.641 436.164C419.484 438.186 418.515 439.112 416.248 440.417M417.406 434.968C416.364 436.556 416.464 437.742 413.52 439.265M414.87 433.845C413.649 435.558 412.195 437.078 409.373 438.263M411.125 433.053C409.524 435.194 408.486 435.48 405.851 436.99M406.964 431.73C405.886 433.935 405.656 433.883 401.875 436.381M403.91 429.525C402.221 431.975 401.234 432.263 398.317 434.187M400.001 427.754C398.586 430.418 396.903 430.144 393.178 431.746M395.77 425.463C394.144 427.988 393.351 427.573 389.937 429.414M393.368 423.306C391.383 425.587 390.53 424.868 387.147 426.418M429.5 436.381L427.109 440.637" stroke="black" stroke-width="2" stroke-linecap="round" stroke-linejoin="round"/>
<path d="M592.834 1063.49L592.912 1063.5L592.991 1063.5C677.527 1064.02 729.035 1042.45 772.102 1008.15C793.592 991.028 812.952 970.76 833.235 948.581C837.217 944.226 841.235 939.799 845.311 935.306C861.841 917.088 879.344 897.797 899.405 877.983L1019.96 916.901C1049.53 930.314 1063.3 940.234 1082.5 962.065V1082.5H1V906.527C5.72515 900.721 15.1686 892.423 27.4602 885.036C40.025 877.484 55.4483 870.957 71.6805 868.989L71.7587 868.98L71.8354 868.962C126.395 856.445 166.736 847.425 196.662 840.919C229.716 864.959 255.439 889.067 279.287 912.185C282.404 915.207 285.49 918.213 288.557 921.2C309.065 941.175 328.714 960.313 351.08 977.806C402.6 1018.1 468.472 1049.62 592.834 1063.49Z" fill="#000320" stroke="black" stroke-width="3"/>
<path d="M444.955 410.397C447.891 411.543 449.81 412.382 451.856 413.355C456.477 415.553 459.26 417.38 461.907 419.119C462.723 419.655 463.525 420.182 464.365 420.709C467.941 422.953 471.961 425.032 479.907 427.389L482.654 428.958L447.428 432.34L425.014 434.492C422.928 434.25 420.979 433.977 419.142 433.669C408.699 431.919 401.799 429.057 393.731 424.69C393.716 424.675 393.67 424.621 393.6 424.487C393.478 424.253 393.375 423.961 393.22 423.517L393.214 423.502C393.099 423.172 392.948 422.744 392.742 422.329C401.296 416.767 407.963 412.68 413.952 410.083C419.145 407.83 423.779 406.72 428.63 406.748C433.492 406.775 438.673 407.946 444.955 410.397ZM635.03 413.515C638.405 411.447 642.859 409.077 650.496 406.124C658.508 403.025 664.904 401.803 671.032 402.242C672.69 402.361 674.338 402.603 675.999 402.965C677.186 403.225 678.381 403.546 679.595 403.93C680.901 404.343 682.229 404.829 683.591 405.388C685.124 406.017 686.698 406.738 688.332 407.551C689.453 408.109 690.601 408.71 691.782 409.354C692.905 409.967 694.059 410.619 695.246 411.31C696.321 411.936 697.424 412.593 698.558 413.282C699.581 413.903 700.629 414.55 701.705 415.222C702.359 415.631 703.023 416.049 703.698 416.476C704.893 417.232 706.121 418.017 707.386 418.832C707.543 418.933 707.7 419.034 707.858 419.136C707.612 419.605 707.435 420.102 707.299 420.487L707.29 420.511C707.123 420.985 707.008 421.309 706.87 421.571C706.764 421.773 706.697 421.829 706.687 421.837C696.311 427.404 687.667 430.74 672.375 432.491L667.429 431.996L640.539 429.302L610.713 426.314L612.466 424.484C618.975 422.56 622.984 420.835 626.196 419.066C627.827 418.169 629.234 417.27 630.629 416.355C630.91 416.17 631.19 415.986 631.471 415.801C632.593 415.061 633.732 414.311 635.03 413.515Z" fill="white" stroke="black" stroke-width="3"/>
<path d="M390.827 420.767C389.36 420.101 388.636 419.486 387.824 417.197M394.792 418.438C393.053 417.083 392.475 416.171 392.112 414.287M396.935 417.197C395.636 416.045 395.067 415.205 394.792 412.808M400.326 415.273C398.973 413.967 397.957 412.56 398.007 410.342M403.903 413.314C402.249 411.63 401.638 410.558 401.223 408.37M407.655 411.365C405.667 410.011 404.879 409.139 403.903 405.904M411.407 409.561C409.444 407.729 408.94 406.67 408.191 404.174M416.595 407.383C414.249 405.672 413.527 404.405 413.551 401.466M421.003 405.904C418.922 404.093 418.245 402.788 417.839 399.986M425 404.918C423.378 402.938 422.75 401.697 422.663 399M388.752 422L383 421.191" stroke="black" stroke-width="2" stroke-linecap="round" stroke-linejoin="round"/>
<path d="M412.5 418.5C412.5 415.406 413.202 412.48 414.453 409.868C419.444 407.76 423.936 406.721 428.63 406.748C433.492 406.775 438.673 407.946 444.955 410.397C447.633 411.443 449.465 412.232 451.319 413.101C452.089 415.138 452.367 416.591 452.5 418.55C452.487 423.927 450.353 428.804 446.888 432.392L425.014 434.492C423.078 434.268 421.261 434.016 419.542 433.735C415.231 430.064 412.5 424.602 412.5 418.5ZM635.5 415.5C635.5 414.703 635.547 413.918 635.637 413.147C638.939 411.167 643.308 408.903 650.496 406.124C658.251 403.125 664.493 401.883 670.442 402.205C673.589 405.74 675.5 410.395 675.5 415.5C675.5 422.311 672.096 428.328 666.89 431.942L641.078 429.356C637.622 425.76 635.5 420.879 635.5 415.5Z" fill="#00A324" stroke="black" stroke-width="3"/>
<path d="M639.946 631.71C647.615 628.998 650.723 626.594 654.5 621L637.087 643.605L615.167 672.155C615.167 672.155 609.5 678 607.542 679.768C605.585 681.535 584.853 690.718 570.773 690.5C552.665 690.22 536.063 687.857 533.204 686.905L518.5 683.5C510.256 681.341 505.657 679.394 497.5 674.5L440.5 631.5C457.982 635.255 475.039 640.722 501.277 636.468C535.11 628.855 521.637 630.05 547.977 629.331C555.578 629.123 554.171 631.71 566.483 633.399C574.604 629.931 577.781 625.723 587.052 626.952L639.946 631.71Z" fill="#B07F01"/>
<path d="M639.946 631.71C647.615 628.998 650.723 626.594 654.5 621L637.087 643.605L615.167 672.155C615.167 672.155 609.5 678 607.542 679.768C605.585 681.535 584.853 690.718 570.773 690.5C552.665 690.22 536.063 687.857 533.204 686.905L518.5 683.5C510.256 681.341 505.657 679.394 497.5 674.5L440.5 631.5C457.982 635.255 475.039 640.722 501.277 636.468C535.11 628.855 521.637 630.05 547.977 629.331C555.578 629.123 554.171 631.71 566.483 633.399C574.604 629.931 577.781 625.723 587.052 626.952L639.946 631.71Z" fill="#B07F01"/>
<path d="M654 622C652.537 625.75 651.1 627.5 649 629C646.9 630.5 615.781 643.17 598 645.5C592 646.286 591.468 645.074 586 645.5C580.305 646.607 553.788 648.764 548.664 648.072L536.527 649.812H517C494.141 650.51 456 641.5 433.5 627.5" stroke="black" stroke-width="3" stroke-linecap="round" stroke-linejoin="round"/>
<path d="M339.043 116.44L325.025 101.754M370.081 101.754L351.057 83.5079M403.623 92.4084L387.603 63.9267M442.17 83.5079L433.159 47.9058M484.723 83.5079V35M530.279 83.5079V35M565.823 83.5079L575.836 35M605.372 83.5079L613.883 43.0105M640.416 96.4136L656.936 61.2565M668.45 105.759L694.983 83.5079M694.983 120L729.025 105.759" stroke="black" stroke-width="3"/>
<path d="M301.415 157.239L284.584 148.046M328.37 138.776L305.896 127.685M358.924 124.189L337.133 104.063M394.44 108.939L377.905 81.5154M435.793 100.184L425.195 60.2933M480.065 90.8108L469.467 50.9202M514.607 83.4978L513.739 41.5472M553.041 75.3607L552.463 40.3066M589.916 78.7638L598.289 46.4533M619.202 80.6811L640.125 56.9237M648.098 86.9331L678.069 68.218" stroke="black" stroke-width="3"/>
<path d="M721.252 133.863L736.515 124.131M696.976 116.435L717.351 104.617M669.427 102.988L689.23 82.2053M637.394 89.054L652.483 61.1943M600.052 81.7855L609.835 41.7296M560.073 74.004L569.857 33.948M528.881 67.9327L529.879 26.1665M494.175 61.1773L494.875 26.2824M460.819 65.8486L453.413 33.9953M434.332 68.7771L415.536 45.8707M408.176 76.0046L381.174 58.4303" stroke="black" stroke-width="3"/>
<circle cx="432" cy="420" r="8" fill="black"/>
<circle cx="657" cy="416" r="8" fill="black"/>
<path d="M708.198 417.57C709.567 416.895 710.243 416.271 711 413.95M704.5 415.208C706.122 413.835 706.661 412.91 707 411M702.5 413.95C703.712 412.782 704.243 411.93 704.5 409.5M699.337 412C700.599 410.675 701.547 409.249 701.5 407M696 410.014C697.543 408.306 698.113 407.219 698.5 405M692.5 408.037C694.355 406.664 695.09 405.78 696 402.5M689 406.208C690.831 404.351 691.302 403.276 692 400.746M684.16 404C686.349 402.265 687.022 400.98 687 398M680.048 402.5C681.989 400.664 682.621 399.341 683 396.5M676.319 401.5C677.833 399.493 678.418 398.234 678.5 395.5M710.135 418.82L715.5 418" stroke="black" stroke-width="2" stroke-linecap="round" stroke-linejoin="round"/>
<path d="M676.632 434.3C676.276 435.783 676.323 436.702 677.622 438.769M680.814 432.969C680.831 435.094 681.197 436.1 682.448 437.582M684 432C684.122 433.679 683.498 434.868 685.201 436.621M686.583 431.053C686.793 432.871 687.283 434.512 689.042 435.915M690 430.529C690.325 432.807 691.04 433.172 692.498 434.889M694 429.5C693.869 431.804 694.08 431.769 696.019 434.567M697.5 427.5C697.755 430.095 698.428 430.459 699.926 432.615M701.5 426C701.434 428.792 702.931 428.64 705.236 430.529M706 424C706.169 426.667 707.007 426.306 708.948 428.415M708.948 422C709.522 424.447 710.546 423.784 712.595 425.596M671.63 434.3L671.63 438.769" stroke="black" stroke-width="2" stroke-linecap="round" stroke-linejoin="round"/>
<path d="M722.5 432.5C682.376 462.746 660.73 472.795 607 448.495L576 435.5C569.99 429.104 571.507 422.061 594 395.5C619.398 377.307 636.109 380.265 666 386C637.02 388.323 625.836 393.97 614 411L647 404L607 427L674 435.5L709.5 421.5L681 404L719 411L726.813 421.5C727.077 426.879 726.085 429.261 722.5 432.5Z" fill="#0C000C" fill-opacity="0.3"/>
<path d="M614.5 691.5C574.376 721.746 619.73 758.3 566 734C559.99 727.604 514.006 714.561 536.5 688L570 691.5C587.101 688.739 595.215 686.081 607.421 679.636C615.996 671.962 623.016 662.899 637.5 642.5L624.733 679.636C623 684.5 618.085 688.262 614.5 691.5Z" fill="#C9C0C9" fill-opacity="0.3"/>
<path d="M435 444C482.267 447.446 485.116 452.789 491.184 452.789L522.579 440.578C528.764 434.336 527.5 416 503.05 402.138C470 395 458.1 387.519 428 392.5C456.984 395.552 467.568 397.178 479 414.5C472.471 416.601 469.526 416.368 462.5 416C472 423 481.249 423.564 492 431L423 437.5L418 436.5C419.301 442.961 431.049 442.028 435 444Z" fill="#0C000C" fill-opacity="0.3"/>
<path d="M720.5 362C688.843 349.658 671.108 346.798 639.5 355.5C622.198 360.942 611.155 364.522 609 364L602.711 362.742C600.815 362.363 599.762 360.309 600.676 358.605C605.602 349.428 612.052 344.153 625.149 336.213C625.379 336.073 625.636 335.962 625.896 335.888C656.545 327.247 672.934 322.395 703.574 331.868C703.853 331.954 704.127 332.086 704.369 332.248C725.639 346.569 737.734 352.592 754 368.5C757.752 372.17 770.523 379.738 749.746 374.562C749.59 374.523 749.426 374.468 749.277 374.404L720.5 362Z" fill="black"/>
<path d="M720.5 362C688.843 349.658 671.108 346.798 639.5 355.5C622.198 360.942 611.155 364.522 609 364L602.711 362.742C600.815 362.363 599.762 360.309 600.676 358.605C605.602 349.428 612.052 344.153 625.149 336.213C625.379 336.073 625.636 335.962 625.896 335.888C656.545 327.247 672.934 322.395 703.574 331.868C703.853 331.954 704.127 332.086 704.369 332.248C725.639 346.569 737.734 352.592 754 368.5C757.752 372.17 770.523 379.738 749.746 374.562C749.59 374.523 749.426 374.468 749.277 374.404L720.5 362Z" fill="black"/>
<path d="M349.648 380.436L378.5 368C388.62 364.054 397.317 361.078 405.5 359.139C415.549 356.757 424.822 355.939 435 356.811C442.459 357.45 450.405 358.996 459.5 361.5C476.802 366.942 487.845 370.522 490 370L497.5 368.5C498.801 367.855 499.185 367.265 498.793 365.5C493.79 355.735 487.33 350.377 473.734 342.142C473.581 342.049 473.411 341.975 473.238 341.926C456.647 337.249 444.236 333.674 431.5 332.867C420.579 332.175 409.419 333.517 395.181 337.944C395.061 337.981 394.942 338.031 394.832 338.09C372.444 350.042 361.319 358.54 345 374.5C341.243 378.175 328.443 385.757 349.335 380.541C349.44 380.515 349.55 380.479 349.648 380.436Z" fill="black"/>
</g>
<defs>
<clipPath id="clip0_11:14">
<rect width="1080" height="1080" fill="white"/>
</clipPath>
</defs>
</svg>
